<mxfile host="app.diagrams.net" agent="Mozilla/5.0 (Windows NT 10.0; Win64; x64) AppleWebKit/537.36 (KHTML, like Gecko) Chrome/137.0.0.0 Safari/537.36 Edg/137.0.0.0" version="27.1.4">
  <diagram name="UseCase_LaptopShop" id="usecase-laptopshop">
    <mxGraphModel dx="1566" dy="2065" grid="0" gridSize="10" guides="1" tooltips="1" connect="1" arrows="1" fold="1" page="1" pageScale="1" pageWidth="850" pageHeight="1100" math="0" shadow="0">
      <root>
        <mxCell id="0" />
        <mxCell id="1" parent="0" />
        <mxCell id="xkgsJZwQz8eM1ipFMjnP-1" style="edgeStyle=orthogonalEdgeStyle;rounded=0;orthogonalLoop=1;jettySize=auto;html=1;exitX=1;exitY=0.3333333333333333;exitDx=0;exitDy=0;exitPerimeter=0;" edge="1" parent="1" source="actor_user">
          <mxGeometry relative="1" as="geometry">
            <mxPoint x="118.88235294117658" y="-4.058823529411711" as="targetPoint" />
          </mxGeometry>
        </mxCell>
        <mxCell id="actor_user" value="User" style="shape=umlActor;verticalLabelPosition=bottom;verticalAlign=top;" parent="1" vertex="1">
          <mxGeometry x="79" y="48" width="40" height="80" as="geometry" />
        </mxCell>
        <mxCell id="actor_admin" value="Admin" style="shape=umlActor;verticalLabelPosition=bottom;verticalAlign=top;" parent="1" vertex="1">
          <mxGeometry x="1030" y="600" width="40" height="80" as="geometry" />
        </mxCell>
        <mxCell id="uc_dangky" value="Đăng ký/Đăng nhập" style="ellipse;whiteSpace=wrap;html=1;" parent="1" vertex="1">
          <mxGeometry x="269" y="-52" width="140" height="40" as="geometry" />
        </mxCell>
        <mxCell id="uc_xemsp" value="Xem/tìm kiếm sản phẩm" style="ellipse;whiteSpace=wrap;html=1;" parent="1" vertex="1">
          <mxGeometry x="425" y="30" width="140" height="40" as="geometry" />
        </mxCell>
        <mxCell id="uc_dathang" value="Đặt hàng" style="ellipse;whiteSpace=wrap;html=1;" parent="1" vertex="1">
          <mxGeometry x="329" y="28" width="140" height="40" as="geometry" />
        </mxCell>
        <mxCell id="uc_xemdh" value="Xem đơn hàng" style="ellipse;whiteSpace=wrap;html=1;" parent="1" vertex="1">
          <mxGeometry x="309" y="78" width="140" height="40" as="geometry" />
        </mxCell>
        <mxCell id="uc_capnhattt" value="Cập nhật thông tin cá nhân" style="ellipse;whiteSpace=wrap;html=1;" parent="1" vertex="1">
          <mxGeometry x="309" y="128" width="140" height="40" as="geometry" />
        </mxCell>
        <mxCell id="uc_qlsp" value="Quản lý sản phẩm" style="ellipse;whiteSpace=wrap;html=1;" parent="1" vertex="1">
          <mxGeometry x="1370" y="510" width="140" height="40" as="geometry" />
        </mxCell>
        <mxCell id="uc_qldm" value="Quản lý danh mục" style="ellipse;whiteSpace=wrap;html=1;" parent="1" vertex="1">
          <mxGeometry x="1380" y="560" width="140" height="40" as="geometry" />
        </mxCell>
        <mxCell id="uc_qldh" value="Quản lý đơn hàng" style="ellipse;whiteSpace=wrap;html=1;" parent="1" vertex="1">
          <mxGeometry x="1370" y="610" width="140" height="40" as="geometry" />
        </mxCell>
        <mxCell id="uc_qlnd" value="Quản lý người dùng" style="ellipse;whiteSpace=wrap;html=1;" parent="1" vertex="1">
          <mxGeometry x="1330" y="670" width="140" height="40" as="geometry" />
        </mxCell>
        <mxCell id="uc_thongke" value="Thống kê doanh thu, số liệu" style="ellipse;whiteSpace=wrap;html=1;" parent="1" vertex="1">
          <mxGeometry x="1270" y="730" width="180" height="40" as="geometry" />
        </mxCell>
        <mxCell id="edge1" style="endArrow=none;html=1;" parent="1" source="actor_user" target="uc_dangky" edge="1">
          <mxGeometry relative="1" as="geometry" />
        </mxCell>
        <mxCell id="edge2" style="endArrow=none;html=1;" parent="1" source="actor_user" edge="1">
          <mxGeometry relative="1" as="geometry">
            <mxPoint x="443.7957936547973" y="-8.062712865361618" as="targetPoint" />
          </mxGeometry>
        </mxCell>
        <mxCell id="edge3" style="endArrow=none;html=1;" parent="1" source="actor_user" target="uc_dathang" edge="1">
          <mxGeometry relative="1" as="geometry" />
        </mxCell>
        <mxCell id="edge4" style="endArrow=none;html=1;" parent="1" source="uc_danhgia" target="uc_xemdh" edge="1">
          <mxGeometry relative="1" as="geometry" />
        </mxCell>
        <mxCell id="edge5" style="endArrow=none;html=1;" parent="1" source="actor_user" edge="1">
          <mxGeometry relative="1" as="geometry">
            <mxPoint x="244.09844993724982" y="160.66328232177125" as="targetPoint" />
          </mxGeometry>
        </mxCell>
        <mxCell id="edge6" style="endArrow=none;html=1;" parent="1" source="actor_user" target="uc_capnhattt" edge="1">
          <mxGeometry relative="1" as="geometry" />
        </mxCell>
        <mxCell id="edge7" style="endArrow=none;html=1;" parent="1" source="actor_admin" target="uc_qlsp" edge="1">
          <mxGeometry relative="1" as="geometry" />
        </mxCell>
        <mxCell id="edge8" style="endArrow=none;html=1;" parent="1" source="actor_admin" target="uc_qldm" edge="1">
          <mxGeometry relative="1" as="geometry" />
        </mxCell>
        <mxCell id="edge9" style="endArrow=none;html=1;" parent="1" source="actor_admin" target="uc_qldh" edge="1">
          <mxGeometry relative="1" as="geometry" />
        </mxCell>
        <mxCell id="edge10" style="endArrow=none;html=1;" parent="1" source="actor_admin" target="uc_qlnd" edge="1">
          <mxGeometry relative="1" as="geometry" />
        </mxCell>
        <mxCell id="edge11" style="endArrow=none;html=1;" parent="1" source="actor_admin" target="uc_thongke" edge="1">
          <mxGeometry relative="1" as="geometry" />
        </mxCell>
        <mxCell id="Mx1zAIDKR-OhE8m4Ded1-1" value="Người dùng (Client)" style="shape=umlActor;verticalLabelPosition=bottom;verticalAlign=top;" parent="1" vertex="1">
          <mxGeometry x="70" y="400" width="40" height="80" as="geometry" />
        </mxCell>
        <mxCell id="Mx1zAIDKR-OhE8m4Ded1-2" value="Admin" style="shape=umlActor;verticalLabelPosition=bottom;verticalAlign=top;" parent="1" vertex="1">
          <mxGeometry x="1280" y="260" width="40" height="80" as="geometry" />
        </mxCell>
        <mxCell id="Mx1zAIDKR-OhE8m4Ded1-3" value="Xem danh sách sản phẩm" style="ellipse;whiteSpace=wrap;html=1;aspect=fixed;" parent="1" vertex="1">
          <mxGeometry x="120" y="764.44" width="160" height="35.56" as="geometry" />
        </mxCell>
        <mxCell id="Mx1zAIDKR-OhE8m4Ded1-4" value="Tìm kiếm sản phẩm" style="ellipse;whiteSpace=wrap;html=1;aspect=fixed;" parent="1" vertex="1">
          <mxGeometry x="380" y="430" width="180" height="40" as="geometry" />
        </mxCell>
        <mxCell id="Mx1zAIDKR-OhE8m4Ded1-5" value="Xem chi tiết sản phẩm" style="ellipse;whiteSpace=wrap;html=1;aspect=fixed;" parent="1" vertex="1">
          <mxGeometry x="370" y="390" width="180" height="40" as="geometry" />
        </mxCell>
        <mxCell id="Mx1zAIDKR-OhE8m4Ded1-6" value="Đăng ký tài khoản" style="ellipse;whiteSpace=wrap;html=1;aspect=fixed;" parent="1" vertex="1">
          <mxGeometry x="370" y="310" width="180" height="40" as="geometry" />
        </mxCell>
        <mxCell id="Mx1zAIDKR-OhE8m4Ded1-7" value="Đăng nhập" style="ellipse;whiteSpace=wrap;html=1;aspect=fixed;" parent="1" vertex="1">
          <mxGeometry y="727.78" width="180" height="40" as="geometry" />
        </mxCell>
        <mxCell id="Mx1zAIDKR-OhE8m4Ded1-8" value="Thêm vào yêu thích" style="ellipse;whiteSpace=wrap;html=1;aspect=fixed;" parent="1" vertex="1">
          <mxGeometry x="385" y="770" width="180" height="40" as="geometry" />
        </mxCell>
        <mxCell id="Mx1zAIDKR-OhE8m4Ded1-9" value="Xem danh sách yêu thích" style="ellipse;whiteSpace=wrap;html=1;aspect=fixed;" parent="1" vertex="1">
          <mxGeometry x="360" y="350" width="180" height="40" as="geometry" />
        </mxCell>
        <mxCell id="Mx1zAIDKR-OhE8m4Ded1-10" value="Đặt hàng (giỏ hàng)" style="ellipse;whiteSpace=wrap;html=1;aspect=fixed;" parent="1" vertex="1">
          <mxGeometry x="380" y="640" width="180" height="40" as="geometry" />
        </mxCell>
        <mxCell id="Mx1zAIDKR-OhE8m4Ded1-12" value="Xem lịch sử đơn hàng" style="ellipse;whiteSpace=wrap;html=1;aspect=fixed;" parent="1" vertex="1">
          <mxGeometry x="210" y="790" width="180" height="40" as="geometry" />
        </mxCell>
        <mxCell id="Mx1zAIDKR-OhE8m4Ded1-13" value="Xem chi tiết đơn hàng" style="ellipse;whiteSpace=wrap;html=1;aspect=fixed;" parent="1" vertex="1">
          <mxGeometry x="385" y="470" width="180" height="40" as="geometry" />
        </mxCell>
        <mxCell id="Mx1zAIDKR-OhE8m4Ded1-14" value="Đánh giá sản phẩm đã mua" style="ellipse;whiteSpace=wrap;html=1;aspect=fixed;" parent="1" vertex="1">
          <mxGeometry x="380" y="510" width="180" height="40" as="geometry" />
        </mxCell>
        <mxCell id="Mx1zAIDKR-OhE8m4Ded1-15" value="Cập nhật thông tin cá nhân" style="ellipse;whiteSpace=wrap;html=1;aspect=fixed;" parent="1" vertex="1">
          <mxGeometry x="390" y="600" width="180" height="40" as="geometry" />
        </mxCell>
        <mxCell id="Mx1zAIDKR-OhE8m4Ded1-17" value="Chỉnh sửa địa chỉ nhận hàng" style="ellipse;whiteSpace=wrap;html=1;aspect=fixed;" parent="1" vertex="1">
          <mxGeometry x="380" y="730" width="170" height="37.78" as="geometry" />
        </mxCell>
        <mxCell id="Mx1zAIDKR-OhE8m4Ded1-18" value="Đăng xuất" style="ellipse;whiteSpace=wrap;html=1;aspect=fixed;" parent="1" vertex="1">
          <mxGeometry x="360" y="260" width="180" height="40" as="geometry" />
        </mxCell>
        <mxCell id="Mx1zAIDKR-OhE8m4Ded1-19" value="Đăng nhập admin" style="ellipse;whiteSpace=wrap;html=1;aspect=fixed;" parent="1" vertex="1">
          <mxGeometry x="890" y="230" width="180" height="40" as="geometry" />
        </mxCell>
        <mxCell id="Mx1zAIDKR-OhE8m4Ded1-20" value="Quản lý sản phẩm (thêm/sửa/xóa)" style="ellipse;whiteSpace=wrap;html=1;aspect=fixed;" parent="1" vertex="1">
          <mxGeometry x="890" y="180" width="180" height="40" as="geometry" />
        </mxCell>
        <mxCell id="Mx1zAIDKR-OhE8m4Ded1-21" value="Quản lý danh mục (thêm/sửa/xóa)" style="ellipse;whiteSpace=wrap;html=1;aspect=fixed;" parent="1" vertex="1">
          <mxGeometry x="880" y="280" width="180" height="40" as="geometry" />
        </mxCell>
        <mxCell id="Mx1zAIDKR-OhE8m4Ded1-22" value="Quản lý đơn hàng (xem/xác nhận/trạng thái/hủy)" style="ellipse;whiteSpace=wrap;html=1;aspect=fixed;" parent="1" vertex="1">
          <mxGeometry x="890" y="320" width="180" height="40" as="geometry" />
        </mxCell>
        <mxCell id="Mx1zAIDKR-OhE8m4Ded1-23" value="Quản lý người dùng (xem/phân quyền/xóa)" style="ellipse;whiteSpace=wrap;html=1;aspect=fixed;" parent="1" vertex="1">
          <mxGeometry x="890" y="380" width="180" height="40" as="geometry" />
        </mxCell>
        <mxCell id="Mx1zAIDKR-OhE8m4Ded1-24" value="Xem thống kê doanh thu, đơn hàng, sản phẩm, người dùng" style="ellipse;whiteSpace=wrap;html=1;aspect=fixed;" parent="1" vertex="1">
          <mxGeometry x="880" y="440" width="220" height="40" as="geometry" />
        </mxCell>
        <mxCell id="Mx1zAIDKR-OhE8m4Ded1-25" style="endArrow=none;" parent="1" source="Mx1zAIDKR-OhE8m4Ded1-1" target="Mx1zAIDKR-OhE8m4Ded1-3" edge="1">
          <mxGeometry relative="1" as="geometry" />
        </mxCell>
        <mxCell id="Mx1zAIDKR-OhE8m4Ded1-26" style="endArrow=none;" parent="1" target="Mx1zAIDKR-OhE8m4Ded1-4" edge="1">
          <mxGeometry relative="1" as="geometry">
            <mxPoint x="110" y="430" as="sourcePoint" />
          </mxGeometry>
        </mxCell>
        <mxCell id="Mx1zAIDKR-OhE8m4Ded1-27" style="endArrow=none;" parent="1" target="Mx1zAIDKR-OhE8m4Ded1-5" edge="1">
          <mxGeometry relative="1" as="geometry">
            <mxPoint x="110" y="430" as="sourcePoint" />
          </mxGeometry>
        </mxCell>
        <mxCell id="Mx1zAIDKR-OhE8m4Ded1-28" style="endArrow=none;rounded=0;entryX=0;entryY=0.5;entryDx=0;entryDy=0;" parent="1" target="Mx1zAIDKR-OhE8m4Ded1-6" edge="1">
          <mxGeometry relative="1" as="geometry">
            <mxPoint x="110" y="420" as="sourcePoint" />
          </mxGeometry>
        </mxCell>
        <mxCell id="Mx1zAIDKR-OhE8m4Ded1-29" style="endArrow=none;entryX=0.5;entryY=0;entryDx=0;entryDy=0;" parent="1" target="Mx1zAIDKR-OhE8m4Ded1-7" edge="1">
          <mxGeometry relative="1" as="geometry">
            <mxPoint x="100" y="510" as="sourcePoint" />
            <mxPoint x="129.99999999999977" y="730" as="targetPoint" />
          </mxGeometry>
        </mxCell>
        <mxCell id="Mx1zAIDKR-OhE8m4Ded1-30" style="endArrow=none;entryX=0;entryY=0.5;entryDx=0;entryDy=0;" parent="1" source="Mx1zAIDKR-OhE8m4Ded1-1" target="Mx1zAIDKR-OhE8m4Ded1-8" edge="1">
          <mxGeometry relative="1" as="geometry" />
        </mxCell>
        <mxCell id="Mx1zAIDKR-OhE8m4Ded1-31" style="endArrow=none;" parent="1" target="Mx1zAIDKR-OhE8m4Ded1-9" edge="1">
          <mxGeometry relative="1" as="geometry">
            <mxPoint x="110" y="430" as="sourcePoint" />
          </mxGeometry>
        </mxCell>
        <mxCell id="Mx1zAIDKR-OhE8m4Ded1-32" style="endArrow=none;entryX=0;entryY=0.5;entryDx=0;entryDy=0;" parent="1" source="Mx1zAIDKR-OhE8m4Ded1-1" target="Mx1zAIDKR-OhE8m4Ded1-10" edge="1">
          <mxGeometry relative="1" as="geometry" />
        </mxCell>
        <mxCell id="Mx1zAIDKR-OhE8m4Ded1-34" style="endArrow=none;" parent="1" source="Mx1zAIDKR-OhE8m4Ded1-1" target="Mx1zAIDKR-OhE8m4Ded1-12" edge="1">
          <mxGeometry relative="1" as="geometry" />
        </mxCell>
        <mxCell id="Mx1zAIDKR-OhE8m4Ded1-35" style="endArrow=none;" parent="1" source="Mx1zAIDKR-OhE8m4Ded1-1" target="Mx1zAIDKR-OhE8m4Ded1-13" edge="1">
          <mxGeometry relative="1" as="geometry" />
        </mxCell>
        <mxCell id="Mx1zAIDKR-OhE8m4Ded1-36" style="endArrow=none;" parent="1" source="Mx1zAIDKR-OhE8m4Ded1-1" target="Mx1zAIDKR-OhE8m4Ded1-14" edge="1">
          <mxGeometry relative="1" as="geometry" />
        </mxCell>
        <mxCell id="Mx1zAIDKR-OhE8m4Ded1-38" style="endArrow=none;" parent="1" source="Mx1zAIDKR-OhE8m4Ded1-1" target="Mx1zAIDKR-OhE8m4Ded1-16" edge="1">
          <mxGeometry relative="1" as="geometry" />
        </mxCell>
        <mxCell id="Mx1zAIDKR-OhE8m4Ded1-40" style="endArrow=none;entryX=0;entryY=0.5;entryDx=0;entryDy=0;rounded=0;exitX=1;exitY=0.3333333333333333;exitDx=0;exitDy=0;exitPerimeter=0;" parent="1" source="Mx1zAIDKR-OhE8m4Ded1-1" target="Mx1zAIDKR-OhE8m4Ded1-18" edge="1">
          <mxGeometry relative="1" as="geometry">
            <mxPoint x="640" y="460" as="targetPoint" />
          </mxGeometry>
        </mxCell>
        <mxCell id="Mx1zAIDKR-OhE8m4Ded1-41" style="edgeStyle=orthogonalEdgeStyle;endArrow=none;" parent="1" source="Mx1zAIDKR-OhE8m4Ded1-2" target="Mx1zAIDKR-OhE8m4Ded1-19" edge="1">
          <mxGeometry relative="1" as="geometry" />
        </mxCell>
        <mxCell id="Mx1zAIDKR-OhE8m4Ded1-42" style="edgeStyle=orthogonalEdgeStyle;endArrow=none;" parent="1" source="Mx1zAIDKR-OhE8m4Ded1-2" target="Mx1zAIDKR-OhE8m4Ded1-20" edge="1">
          <mxGeometry relative="1" as="geometry">
            <Array as="points">
              <mxPoint x="1180" y="300" />
              <mxPoint x="1180" y="200" />
            </Array>
          </mxGeometry>
        </mxCell>
        <mxCell id="Mx1zAIDKR-OhE8m4Ded1-43" style="edgeStyle=orthogonalEdgeStyle;endArrow=none;" parent="1" source="Mx1zAIDKR-OhE8m4Ded1-2" target="Mx1zAIDKR-OhE8m4Ded1-21" edge="1">
          <mxGeometry relative="1" as="geometry" />
        </mxCell>
        <mxCell id="Mx1zAIDKR-OhE8m4Ded1-44" style="edgeStyle=orthogonalEdgeStyle;endArrow=none;" parent="1" source="Mx1zAIDKR-OhE8m4Ded1-2" target="Mx1zAIDKR-OhE8m4Ded1-22" edge="1">
          <mxGeometry relative="1" as="geometry" />
        </mxCell>
        <mxCell id="Mx1zAIDKR-OhE8m4Ded1-45" style="edgeStyle=orthogonalEdgeStyle;endArrow=none;" parent="1" source="Mx1zAIDKR-OhE8m4Ded1-2" target="Mx1zAIDKR-OhE8m4Ded1-23" edge="1">
          <mxGeometry relative="1" as="geometry">
            <Array as="points">
              <mxPoint x="1180" y="300" />
              <mxPoint x="1180" y="400" />
            </Array>
          </mxGeometry>
        </mxCell>
        <mxCell id="Mx1zAIDKR-OhE8m4Ded1-46" style="edgeStyle=orthogonalEdgeStyle;endArrow=none;" parent="1" source="Mx1zAIDKR-OhE8m4Ded1-2" target="Mx1zAIDKR-OhE8m4Ded1-24" edge="1">
          <mxGeometry relative="1" as="geometry">
            <Array as="points">
              <mxPoint x="1180" y="300" />
              <mxPoint x="1180" y="460" />
            </Array>
          </mxGeometry>
        </mxCell>
        <mxCell id="Mx1zAIDKR-OhE8m4Ded1-47" value="" style="endArrow=none;entryX=0;entryY=0.5;entryDx=0;entryDy=0;" parent="1" source="Mx1zAIDKR-OhE8m4Ded1-1" target="Mx1zAIDKR-OhE8m4Ded1-11" edge="1">
          <mxGeometry relative="1" as="geometry">
            <mxPoint x="110" y="440" as="sourcePoint" />
            <mxPoint x="340" y="790" as="targetPoint" />
          </mxGeometry>
        </mxCell>
        <mxCell id="Mx1zAIDKR-OhE8m4Ded1-11" value="Xem giỏ hàng" style="ellipse;whiteSpace=wrap;html=1;aspect=fixed;" parent="1" vertex="1">
          <mxGeometry x="380" y="680" width="180" height="40" as="geometry" />
        </mxCell>
        <mxCell id="Mx1zAIDKR-OhE8m4Ded1-49" value="" style="endArrow=none;entryX=0;entryY=0.5;entryDx=0;entryDy=0;" parent="1" target="Mx1zAIDKR-OhE8m4Ded1-15" edge="1">
          <mxGeometry relative="1" as="geometry">
            <mxPoint x="109.99999999999977" y="460" as="sourcePoint" />
            <mxPoint x="200" y="810" as="targetPoint" />
          </mxGeometry>
        </mxCell>
        <mxCell id="Mx1zAIDKR-OhE8m4Ded1-16" value="Đổi mật khẩu" style="ellipse;whiteSpace=wrap;html=1;aspect=fixed;" parent="1" vertex="1">
          <mxGeometry x="385" y="550" width="180" height="40" as="geometry" />
        </mxCell>
        <mxCell id="Mx1zAIDKR-OhE8m4Ded1-50" value="" style="endArrow=none;html=1;rounded=0;exitX=0;exitY=0.5;exitDx=0;exitDy=0;" parent="1" source="Mx1zAIDKR-OhE8m4Ded1-17" edge="1">
          <mxGeometry width="50" height="50" relative="1" as="geometry">
            <mxPoint x="60" y="520" as="sourcePoint" />
            <mxPoint x="110" y="470" as="targetPoint" />
          </mxGeometry>
        </mxCell>
        <mxCell id="xkgsJZwQz8eM1ipFMjnP-2" value="" style="endArrow=none;html=1;" edge="1" parent="1" source="actor_user" target="uc_danhgia">
          <mxGeometry relative="1" as="geometry">
            <mxPoint x="119" y="89" as="sourcePoint" />
            <mxPoint x="309" y="96" as="targetPoint" />
          </mxGeometry>
        </mxCell>
        <mxCell id="uc_danhgia" value="Đánh giá sản phẩm" style="ellipse;whiteSpace=wrap;html=1;" parent="1" vertex="1">
          <mxGeometry x="210" y="81" width="140" height="40" as="geometry" />
        </mxCell>
      </root>
    </mxGraphModel>
  </diagram>
</mxfile>
